<?xml version="1.0" encoding="utf-8"?>
<!-- Generator: Adobe Illustrator 21.1.0, SVG Export Plug-In . SVG Version: 6.00 Build 0)  -->
<svg version="1.1" id="Layer_1" xmlns="http://www.w3.org/2000/svg" xmlns:xlink="http://www.w3.org/1999/xlink" x="0px" y="0px"
	 viewBox="0 0 24 24" style="enable-background:new 0 0 24 24;" xml:space="preserve">
<style type="text/css">
	.st0{fill:#FFFFFF;}
</style>
<path class="st0" d="M12,0C5.4,0,0,5.4,0,12c0,6.6,5.4,12,12,12c6.6,0,12-5.4,12-12C24,5.4,18.6,0,12,0z M13.7,17.9
	c0,0.4-0.2,0.9-0.5,1.2c-0.7,0.7-1.8,0.6-2.5,0c-0.3-0.3-0.5-0.7-0.5-1.2v-6.8c0-0.4,0.2-0.9,0.5-1.2c0.3-0.3,0.8-0.5,1.2-0.5h0
	c0.5,0,0.9,0.2,1.2,0.5c0.3,0.3,0.5,0.7,0.5,1.2V17.9z M12,8.2c-1,0-1.9-0.8-1.9-1.9c0-1,0.8-1.9,1.9-1.9s1.9,0.8,1.9,1.9
	C13.9,7.3,13,8.2,12,8.2z"/>
</svg>
